<?xml version="1.0" encoding="UTF-8" standalone="no"?>
<svg
   version="1.1"
   height="147.90446"
   width="147.90446"
   id="svg134"
   sodipodi:docname="jquery_logo.svg"
   inkscape:version="1.1.1 (3bf5ae0d25, 2021-09-20)"
   xmlns:inkscape="http://www.inkscape.org/namespaces/inkscape"
   xmlns:sodipodi="http://sodipodi.sourceforge.net/DTD/sodipodi-0.dtd"
   xmlns="http://www.w3.org/2000/svg"
   xmlns:svg="http://www.w3.org/2000/svg">
  <defs
     id="defs138" />
  <sodipodi:namedview
     id="namedview136"
     pagecolor="#ffffff"
     bordercolor="#666666"
     borderopacity="1.0"
     inkscape:pageshadow="2"
     inkscape:pageopacity="0.0"
     inkscape:pagecheckerboard="0"
     showgrid="false"
     inkscape:zoom="1.4696613"
     inkscape:cx="13.608578"
     inkscape:cy="133.36406"
     inkscape:window-width="1920"
     inkscape:window-height="986"
     inkscape:window-x="-11"
     inkscape:window-y="-11"
     inkscape:window-maximized="1"
     inkscape:current-layer="svg134" />
  <circle
     style="fill:#ffffff;stroke:#011638;stroke-width:6;stroke-miterlimit:4;stroke-dasharray:none;stroke-opacity:1"
     id="path1906"
     cx="73.952232"
     cy="73.952232"
     r="70.952232" />
  <g
     id="g1650"
     transform="matrix(0.69331562,0,0,0.69331562,21.953561,23.85815)">
    <path
       fill-rule="nonzero"
       fill="#0868ac"
       d="m 9.525792,33.939232 c -13.28051,19.088243 -11.6272578,43.92208 -1.4820954,64.203738 0.2412002,0.48626 0.4940318,0.9647 0.7429916,1.44318 0.1595254,0.30342 0.3092518,0.61462 0.474577,0.91415 0.093402,0.17886 0.1983712,0.35398 0.2956448,0.52515 0.1730688,0.32286 0.3500892,0.63019 0.529022,0.94527 0.315099,0.55627 0.637974,1.10865 0.968608,1.66106 0.182836,0.3034 0.363729,0.60682 0.552396,0.91024 0.365656,0.59128 0.741048,1.17478 1.124199,1.75826 0.159526,0.24896 0.315084,0.49792 0.478465,0.73908 0.529053,0.78968 1.069754,1.57545 1.627918,2.34955 0.01386,0.0199 0.02908,0.0429 0.0466,0.0621 0.08763,0.12444 0.184828,0.24507 0.274246,0.36956 0.482369,0.66517 0.980288,1.32258 1.48404,1.97224 0.184827,0.23728 0.371487,0.47457 0.558211,0.71186 0.449307,0.56405 0.906373,1.12423 1.371231,1.68432 0.173069,0.21006 0.348145,0.4201 0.52319,0.62628 0.624351,0.73521 1.26035,1.46653 1.909939,2.18224 0.01195,0.0112 0.02729,0.0272 0.03883,0.0389 0.02729,0.0311 0.05059,0.0505 0.07388,0.0816 0.634071,0.69241 1.283693,1.36927 1.94117,2.04617 0.204202,0.21006 0.412341,0.42013 0.622391,0.62631 0.509583,0.51347 1.026941,1.01918 1.550163,1.52097 0.211994,0.20227 0.422061,0.40845 0.634071,0.60295 0.698234,0.65742 1.404276,1.30315 2.123925,1.93336 0.01195,0.0112 0.0213,0.0199 0.03306,0.0273 0.122496,0.10899 0.24896,0.21007 0.36956,0.31508 0.634071,0.5485 1.279805,1.0931 1.929379,1.62999 0.26451,0.21396 0.532941,0.42402 0.799395,0.63796 0.530982,0.42401 1.067795,0.84414 1.60848,1.25648 0.285925,0.21784 0.571834,0.43567 0.859704,0.65353 0.597105,0.43955 1.198114,0.87135 1.804938,1.29537 0.221714,0.15952 0.435684,0.31508 0.657397,0.46678 0.06214,0.0429 0.118704,0.0856 0.180845,0.12843 0.575738,0.39677 1.165052,0.77798 1.752517,1.15922 0.252848,0.1673 0.503751,0.34229 0.758559,0.50568 0.902469,0.57183 1.818641,1.13589 2.744373,1.68049 0.250887,0.14404 0.505695,0.28397 0.758526,0.42791 0.680756,0.39289 1.365399,0.778 2.059714,1.15533 0.375392,0.20228 0.760503,0.39289 1.139782,0.58739 0.490128,0.25674 0.976384,0.51736 1.474304,0.76632 0.112729,0.0547 0.229521,0.10898 0.34037,0.16332 0.200347,0.0972 0.402621,0.19061 0.602952,0.29175 0.77215,0.36956 1.550163,0.73133 2.336,1.08144 0.167301,0.0739 0.328706,0.14786 0.494032,0.22173 0.900525,0.39287 1.808762,0.7702 2.724934,1.13199 0.219786,0.0894 0.441515,0.17506 0.663245,0.2606 0.848008,0.32678 1.707744,0.64966 2.571336,0.95306 0.108953,0.0389 0.21397,0.0739 0.322875,0.11265 0.947226,0.33067 1.904203,0.63796 2.866901,0.93749 0.229505,0.0661 0.460954,0.14006 0.692403,0.20618 0.980288,0.29564 1.948977,0.64962 2.960271,0.83635 64.227643,11.71282 82.884093,-38.59713 82.884093,-38.59713 -15.66893,20.4139 -43.48232,25.7978 -69.834618,19.80365 -0.997783,-0.22562 -1.966344,-0.53681 -2.940832,-0.82468 -0.247032,-0.0739 -0.490144,-0.14771 -0.733272,-0.22173 -0.951098,-0.29174 -1.894484,-0.59905 -2.831848,-0.92193 -0.128455,-0.0465 -0.258695,-0.0934 -0.389014,-0.14005 -0.840234,-0.29565 -1.670779,-0.60684 -2.497405,-0.92581 -0.233409,-0.0934 -0.466818,-0.18284 -0.700195,-0.27619 -0.906373,-0.35788 -1.80685,-0.73133 -2.695776,-1.12031 -0.182836,-0.0779 -0.357881,-0.15954 -0.538773,-0.23732 -0.76439,-0.3462 -1.520989,-0.69629 -2.2737,-1.05807 -0.217826,-0.105 -0.435683,-0.20616 -0.657413,-0.31508 -0.59113,-0.2884 -1.175887,-0.59591 -1.75905,-0.89546 -0.390369,-0.20554 -0.787111,-0.39993 -1.174293,-0.61503 -0.712224,-0.38081 -1.411702,-0.77755 -2.107993,-1.18226 -0.235814,-0.13225 -0.474816,-0.25972 -0.712224,-0.39675 -0.925732,-0.54492 -1.84031,-1.10896 -2.745329,-1.68097 -0.250155,-0.15934 -0.493936,-0.32982 -0.740904,-0.49394 -0.656457,-0.42383 -1.309728,-0.85562 -1.953438,-1.29857 -0.213508,-0.145 -0.419049,-0.29955 -0.62937,-0.44295 -0.621404,-0.43976 -1.236434,-0.88431 -1.846684,-1.33522 -0.277242,-0.20554 -0.549704,-0.41268 -0.818978,-0.61822 -0.559264,-0.42861 -1.11534,-0.8604 -1.666637,-1.30335 -0.248959,-0.19837 -0.497919,-0.39678 -0.742991,-0.59518 -0.700195,-0.57571 -1.392613,-1.15533 -2.075329,-1.75045 -0.07189,-0.0621 -0.149774,-0.12444 -0.227561,-0.19061 -0.739088,-0.64962 -1.464585,-1.31482 -2.182242,-1.98387 -0.208122,-0.19837 -0.410413,-0.3929 -0.614632,-0.59129 -0.530981,-0.50569 -1.054171,-1.01528 -1.567674,-1.53654 -0.206162,-0.20618 -0.412341,-0.40845 -0.614616,-0.61463 -0.653509,-0.66906 -1.295371,-1.34594 -1.923642,-2.03438 -0.03107,-0.035 -0.06413,-0.0661 -0.0952,-0.10118 -0.665205,-0.72744 -1.314827,-1.47041 -1.950889,-2.22112 -0.173069,-0.20616 -0.34037,-0.40455 -0.511542,-0.60682 -0.474578,-0.57184 -0.945267,-1.15145 -1.404293,-1.73499 -0.172081,-0.21032 -0.344162,-0.42542 -0.51465,-0.64212 -0.552889,-0.717 -1.093033,-1.43241 -1.622022,-2.15898 C 13.45378,70.921397 8.1978206,43.396405 19.891361,20.791654"
       id="path94"
       style="stroke-width:1.59334" />
    <path
       fill-rule="nonzero"
       fill="#0868ac"
       d="m 50.75114,17.857625 c -9.60435,13.821132 -9.083168,32.322547 -1.591016,46.939871 1.256478,2.45072 2.66853,4.82751 4.247851,7.09149 1.439282,2.061626 3.034202,4.516329 4.944142,6.173406 0.692435,0.762446 1.415971,1.505421 2.154995,2.236734 0.186613,0.190611 0.37732,0.373447 0.567947,0.560171 0.717706,0.696307 1.447074,1.38095 2.201681,2.046171 0.03107,0.02326 0.05836,0.05433 0.08943,0.07791 0.008,0.008 0.01593,0.01115 0.0213,0.01992 0.834402,0.731328 1.695954,1.435426 2.571337,2.12775 0.194579,0.147702 0.387054,0.303436 0.583498,0.455138 0.877198,0.67298 1.771956,1.334265 2.68988,1.964432 0.02729,0.01992 0.05059,0.03888 0.07788,0.05832 0.404566,0.280078 0.816907,0.540717 1.227288,0.809115 0.19638,0.128424 0.383183,0.264527 0.58157,0.385111 0.655469,0.420117 1.318682,0.82857 1.99359,1.221457 0.09539,0.05832 0.18862,0.108984 0.282022,0.163317 0.58157,0.334523 1.170884,0.665172 1.762237,0.984162 0.206162,0.11663 0.416213,0.21784 0.626279,0.32676 0.408453,0.21394 0.816907,0.43179 1.23312,0.63796 0.06214,0.0311 0.126463,0.0583 0.186612,0.0857 0.846081,0.41621 1.699937,0.8169 2.571336,1.19811 0.186612,0.0817 0.379279,0.15551 0.567931,0.23339 0.696307,0.29565 1.400405,0.58352 2.108311,0.85582 0.299532,0.11281 0.602937,0.22173 0.902469,0.33064 0.641862,0.23728 1.285652,0.45513 1.935274,0.67296 0.293685,0.0934 0.58157,0.19061 0.875255,0.28009 0.923852,0.28786 1.836008,0.64963 2.798865,0.80912 C 138.55184,104.81826 150,66.638269 150,66.638269 139.67992,81.501924 119.69463,88.592936 98.367735,83.057664 97.420509,82.808704 96.486954,82.536402 95.55915,82.244629 95.275185,82.159069 94.997035,82.065776 94.715013,81.972359 94.055672,81.758389 93.400203,81.532771 92.750581,81.295475 92.453009,81.18649 92.155436,81.077649 91.863663,80.96484 91.15179,80.692538 90.447692,80.408572 89.749457,80.112928 89.558861,80.031189 89.366274,79.957418 89.17955,79.871744 88.304311,79.49052 87.442648,79.089858 86.592759,78.669726 86.155131,78.455788 85.725279,78.230171 85.295443,78.008441 85.046484,77.880177 84.79558,77.751706 84.546604,77.62333 83.994224,77.323798 83.445748,77.012602 82.904983,76.697518 82.776719,76.623587 82.642416,76.55348 82.512097,76.475773 81.841061,76.082887 81.17976,75.678337 80.524243,75.262108 80.321968,75.133685 80.127469,74.993694 79.925178,74.86143 79.493382,74.581352 79.061602,74.297387 78.637598,74.009518 77.723433,73.379335 76.834571,72.718034 75.957436,72.04891 75.755161,71.889368 75.552887,71.733826 75.3545,71.574333 66.019106,64.20353 58.619623,54.132012 55.101523,42.710933 51.414528,30.866024 52.209606,17.569581 58.597316,6.779465"
       id="path96"
       style="stroke-width:1.59334" />
    <path
       fill-rule="nonzero"
       fill="#0868ac"
       d="m 85.423867,5.842229 c -5.661943,8.332385 -6.218179,18.680348 -2.289315,27.883495 4.14285,9.767827 12.632816,17.431167 22.541018,21.063988 0.40846,0.151845 0.81691,0.287853 1.23119,0.427892 0.18085,0.05449 0.35981,0.116792 0.54267,0.171077 0.58349,0.182836 1.1631,0.39679 1.76606,0.509599 27.38159,5.290375 34.80816,-14.050732 36.7855,-16.897398 -6.50594,9.367102 -17.43914,11.615467 -30.85349,8.359631 -1.05957,-0.258121 -2.22431,-0.640523 -3.24564,-1.002212 -1.30973,-0.466849 -2.60033,-0.999026 -3.85429,-1.601309 -2.38205,-1.14402 -4.65256,-2.533415 -6.75737,-4.123571 C 89.285954,31.525875 81.829111,14.150475 89.661983,0"
       id="path98"
       style="stroke-width:1.59334" />
  </g>
</svg>
